<mxfile host="app.diagrams.net" agent="Mozilla/5.0 (Macintosh; Intel Mac OS X 10_15_7) AppleWebKit/537.36 (KHTML, like Gecko) Chrome/138.0.0.0 Safari/537.36" version="28.0.6">
  <diagram name="Page-1" id="CxJf8-Gcw3q9KoR5I0xj">
    <mxGraphModel dx="2703" dy="1145" grid="1" gridSize="10" guides="1" tooltips="1" connect="1" arrows="1" fold="1" page="1" pageScale="1" pageWidth="850" pageHeight="1100" math="0" shadow="0">
      <root>
        <mxCell id="0" />
        <mxCell id="1" parent="0" />
        <mxCell id="Oq4LSLajEUQSApabBxUc-39" value="" style="rounded=0;whiteSpace=wrap;html=1;" vertex="1" parent="1">
          <mxGeometry x="-150" y="30" width="1580" height="1060" as="geometry" />
        </mxCell>
        <mxCell id="Oq4LSLajEUQSApabBxUc-31" value="" style="rounded=0;whiteSpace=wrap;html=1;" vertex="1" parent="1">
          <mxGeometry x="30" y="840" width="250" height="170" as="geometry" />
        </mxCell>
        <mxCell id="Oq4LSLajEUQSApabBxUc-1" value="" style="rounded=0;whiteSpace=wrap;html=1;" vertex="1" parent="1">
          <mxGeometry x="30" y="130" width="1000" height="710" as="geometry" />
        </mxCell>
        <mxCell id="Oq4LSLajEUQSApabBxUc-2" value="AWS Cloud" style="text;html=1;align=center;verticalAlign=middle;whiteSpace=wrap;rounded=0;" vertex="1" parent="1">
          <mxGeometry x="30" y="100" width="90" height="30" as="geometry" />
        </mxCell>
        <mxCell id="Oq4LSLajEUQSApabBxUc-4" value="" style="rounded=1;whiteSpace=wrap;html=1;glass=0;dashed=1;" vertex="1" parent="1">
          <mxGeometry x="630" y="250" width="360" height="220" as="geometry" />
        </mxCell>
        <mxCell id="Oq4LSLajEUQSApabBxUc-5" value="" style="endArrow=classic;html=1;rounded=0;entryX=0.991;entryY=0.546;entryDx=0;entryDy=0;entryPerimeter=0;" edge="1" parent="1" target="Oq4LSLajEUQSApabBxUc-4">
          <mxGeometry width="50" height="50" relative="1" as="geometry">
            <mxPoint x="1250" y="370" as="sourcePoint" />
            <mxPoint x="1030" y="390" as="targetPoint" />
          </mxGeometry>
        </mxCell>
        <mxCell id="Oq4LSLajEUQSApabBxUc-7" value="Route 53" style="text;html=1;align=center;verticalAlign=middle;whiteSpace=wrap;rounded=0;" vertex="1" parent="1">
          <mxGeometry x="685.25" y="403.75" width="60" height="30" as="geometry" />
        </mxCell>
        <mxCell id="Oq4LSLajEUQSApabBxUc-9" value="CloudFront" style="text;html=1;align=center;verticalAlign=middle;whiteSpace=wrap;rounded=0;" vertex="1" parent="1">
          <mxGeometry x="878.25" y="403.75" width="60" height="30" as="geometry" />
        </mxCell>
        <mxCell id="Oq4LSLajEUQSApabBxUc-10" value="" style="image;aspect=fixed;perimeter=ellipsePerimeter;html=1;align=center;shadow=0;dashed=0;spacingTop=3;image=img/lib/active_directory/laptop_client.svg;" vertex="1" parent="1">
          <mxGeometry x="1253" y="346.25" width="45" height="50" as="geometry" />
        </mxCell>
        <mxCell id="Oq4LSLajEUQSApabBxUc-11" value="Client" style="text;html=1;align=center;verticalAlign=middle;whiteSpace=wrap;rounded=0;" vertex="1" parent="1">
          <mxGeometry x="1245.5" y="420" width="60" height="30" as="geometry" />
        </mxCell>
        <mxCell id="Oq4LSLajEUQSApabBxUc-15" value="" style="rounded=1;whiteSpace=wrap;html=1;dashed=1;" vertex="1" parent="1">
          <mxGeometry x="100" y="630" width="520" height="170" as="geometry" />
        </mxCell>
        <mxCell id="Oq4LSLajEUQSApabBxUc-37" style="edgeStyle=orthogonalEdgeStyle;rounded=0;orthogonalLoop=1;jettySize=auto;html=1;" edge="1" parent="1" source="Oq4LSLajEUQSApabBxUc-16" target="Oq4LSLajEUQSApabBxUc-17">
          <mxGeometry relative="1" as="geometry" />
        </mxCell>
        <mxCell id="Oq4LSLajEUQSApabBxUc-16" value="" style="outlineConnect=0;dashed=1;verticalLabelPosition=bottom;verticalAlign=top;align=center;html=1;shape=mxgraph.aws3.codepipeline;fillColor=#759C3E;gradientColor=none;" vertex="1" parent="1">
          <mxGeometry x="161.25" y="666" width="67.5" height="81" as="geometry" />
        </mxCell>
        <mxCell id="Oq4LSLajEUQSApabBxUc-38" style="edgeStyle=orthogonalEdgeStyle;rounded=0;orthogonalLoop=1;jettySize=auto;html=1;" edge="1" parent="1" source="Oq4LSLajEUQSApabBxUc-17" target="Oq4LSLajEUQSApabBxUc-18">
          <mxGeometry relative="1" as="geometry" />
        </mxCell>
        <mxCell id="Oq4LSLajEUQSApabBxUc-17" value="" style="outlineConnect=0;dashed=0;verticalLabelPosition=bottom;verticalAlign=top;align=center;html=1;shape=mxgraph.aws3.codebuild;fillColor=#759C3E;gradientColor=none;" vertex="1" parent="1">
          <mxGeometry x="321.75" y="660" width="76.5" height="93" as="geometry" />
        </mxCell>
        <mxCell id="Oq4LSLajEUQSApabBxUc-23" style="edgeStyle=orthogonalEdgeStyle;rounded=0;orthogonalLoop=1;jettySize=auto;html=1;" edge="1" parent="1" source="Oq4LSLajEUQSApabBxUc-18" target="Oq4LSLajEUQSApabBxUc-25">
          <mxGeometry relative="1" as="geometry">
            <mxPoint x="176.5" y="526.5" as="targetPoint" />
            <Array as="points">
              <mxPoint x="530" y="520" />
              <mxPoint x="318" y="520" />
            </Array>
          </mxGeometry>
        </mxCell>
        <mxCell id="Oq4LSLajEUQSApabBxUc-18" value="" style="outlineConnect=0;dashed=0;verticalLabelPosition=bottom;verticalAlign=top;align=center;html=1;shape=mxgraph.aws3.codedeploy;fillColor=#759C3E;gradientColor=none;" vertex="1" parent="1">
          <mxGeometry x="496.25" y="666" width="67.5" height="81" as="geometry" />
        </mxCell>
        <mxCell id="Oq4LSLajEUQSApabBxUc-19" value="CodeBuild" style="text;html=1;align=center;verticalAlign=middle;whiteSpace=wrap;rounded=0;" vertex="1" parent="1">
          <mxGeometry x="335" y="760" width="60" height="30" as="geometry" />
        </mxCell>
        <mxCell id="Oq4LSLajEUQSApabBxUc-20" value="CodeDeploy" style="text;html=1;align=center;verticalAlign=middle;whiteSpace=wrap;rounded=0;" vertex="1" parent="1">
          <mxGeometry x="500" y="753" width="60" height="30" as="geometry" />
        </mxCell>
        <mxCell id="Oq4LSLajEUQSApabBxUc-21" value="CodePipeline" style="text;html=1;align=center;verticalAlign=middle;whiteSpace=wrap;rounded=0;" vertex="1" parent="1">
          <mxGeometry x="160" y="760" width="70" height="30" as="geometry" />
        </mxCell>
        <mxCell id="Oq4LSLajEUQSApabBxUc-30" style="edgeStyle=orthogonalEdgeStyle;rounded=0;orthogonalLoop=1;jettySize=auto;html=1;entryX=0.5;entryY=1;entryDx=0;entryDy=0;" edge="1" parent="1" source="Oq4LSLajEUQSApabBxUc-22" target="Oq4LSLajEUQSApabBxUc-21">
          <mxGeometry relative="1" as="geometry" />
        </mxCell>
        <mxCell id="Oq4LSLajEUQSApabBxUc-22" value="" style="verticalLabelPosition=bottom;html=1;verticalAlign=top;align=center;strokeColor=none;fillColor=#00BEF2;shape=mxgraph.azure.github_code;pointerEvents=1;" vertex="1" parent="1">
          <mxGeometry x="130" y="900" width="50" height="50" as="geometry" />
        </mxCell>
        <mxCell id="Oq4LSLajEUQSApabBxUc-25" value="" style="rounded=1;whiteSpace=wrap;html=1;dashed=1;" vertex="1" parent="1">
          <mxGeometry x="180" y="251" width="300" height="220" as="geometry" />
        </mxCell>
        <mxCell id="Oq4LSLajEUQSApabBxUc-26" value="" style="sketch=0;points=[[0,0,0],[0.25,0,0],[0.5,0,0],[0.75,0,0],[1,0,0],[0,1,0],[0.25,1,0],[0.5,1,0],[0.75,1,0],[1,1,0],[0,0.25,0],[0,0.5,0],[0,0.75,0],[1,0.25,0],[1,0.5,0],[1,0.75,0]];outlineConnect=0;fontColor=#232F3E;fillColor=#7AA116;strokeColor=#ffffff;dashed=0;verticalLabelPosition=bottom;verticalAlign=top;align=center;html=1;fontSize=12;fontStyle=0;aspect=fixed;shape=mxgraph.aws4.resourceIcon;resIcon=mxgraph.aws4.s3;" vertex="1" parent="1">
          <mxGeometry x="293.5" y="321" width="78" height="78" as="geometry" />
        </mxCell>
        <mxCell id="Oq4LSLajEUQSApabBxUc-27" value="S3 Bucket" style="text;html=1;align=center;verticalAlign=middle;whiteSpace=wrap;rounded=0;" vertex="1" parent="1">
          <mxGeometry x="302.5" y="403.75" width="60" height="30" as="geometry" />
        </mxCell>
        <mxCell id="Oq4LSLajEUQSApabBxUc-28" style="edgeStyle=orthogonalEdgeStyle;rounded=0;orthogonalLoop=1;jettySize=auto;html=1;entryX=1;entryY=0.586;entryDx=0;entryDy=0;entryPerimeter=0;" edge="1" parent="1" source="Oq4LSLajEUQSApabBxUc-4" target="Oq4LSLajEUQSApabBxUc-25">
          <mxGeometry relative="1" as="geometry" />
        </mxCell>
        <mxCell id="Oq4LSLajEUQSApabBxUc-34" value="" style="outlineConnect=0;dashed=0;verticalLabelPosition=bottom;verticalAlign=top;align=center;html=1;shape=mxgraph.aws3.virtual_private_cloud;fillColor=#F58534;gradientColor=none;" vertex="1" parent="1">
          <mxGeometry x="30" y="130" width="79.5" height="54" as="geometry" />
        </mxCell>
        <mxCell id="Oq4LSLajEUQSApabBxUc-35" value="" style="sketch=0;points=[[0,0,0],[0.25,0,0],[0.5,0,0],[0.75,0,0],[1,0,0],[0,1,0],[0.25,1,0],[0.5,1,0],[0.75,1,0],[1,1,0],[0,0.25,0],[0,0.5,0],[0,0.75,0],[1,0.25,0],[1,0.5,0],[1,0.75,0]];outlineConnect=0;fontColor=#232F3E;fillColor=#8C4FFF;strokeColor=#ffffff;dashed=0;verticalLabelPosition=bottom;verticalAlign=top;align=center;html=1;fontSize=12;fontStyle=0;aspect=fixed;shape=mxgraph.aws4.resourceIcon;resIcon=mxgraph.aws4.route_53;" vertex="1" parent="1">
          <mxGeometry x="676.25" y="310.75" width="78" height="78" as="geometry" />
        </mxCell>
        <mxCell id="Oq4LSLajEUQSApabBxUc-40" style="edgeStyle=orthogonalEdgeStyle;rounded=0;orthogonalLoop=1;jettySize=auto;html=1;" edge="1" parent="1" source="Oq4LSLajEUQSApabBxUc-36" target="Oq4LSLajEUQSApabBxUc-35">
          <mxGeometry relative="1" as="geometry" />
        </mxCell>
        <mxCell id="Oq4LSLajEUQSApabBxUc-36" value="" style="sketch=0;points=[[0,0,0],[0.25,0,0],[0.5,0,0],[0.75,0,0],[1,0,0],[0,1,0],[0.25,1,0],[0.5,1,0],[0.75,1,0],[1,1,0],[0,0.25,0],[0,0.5,0],[0,0.75,0],[1,0.25,0],[1,0.5,0],[1,0.75,0]];outlineConnect=0;fontColor=#232F3E;fillColor=#8C4FFF;strokeColor=#ffffff;dashed=0;verticalLabelPosition=bottom;verticalAlign=top;align=center;html=1;fontSize=12;fontStyle=0;aspect=fixed;shape=mxgraph.aws4.resourceIcon;resIcon=mxgraph.aws4.cloudfront;" vertex="1" parent="1">
          <mxGeometry x="869.25" y="310.75" width="78" height="78" as="geometry" />
        </mxCell>
        <mxCell id="Oq4LSLajEUQSApabBxUc-42" value="Github" style="text;html=1;align=center;verticalAlign=middle;whiteSpace=wrap;rounded=0;" vertex="1" parent="1">
          <mxGeometry x="125" y="960" width="60" height="30" as="geometry" />
        </mxCell>
      </root>
    </mxGraphModel>
  </diagram>
</mxfile>
